<mxfile host="app.diagrams.net" agent="Mozilla/5.0 (Windows NT 10.0; Win64; x64) AppleWebKit/537.36 (KHTML, like Gecko) Chrome/134.0.0.0 Safari/537.36" version="25.0.3">
  <diagram name="PÃ¡gina-1" id="ykGJNyhaY-LYu6sBXFF0">
    <mxGraphModel dx="1434" dy="746" grid="1" gridSize="10" guides="1" tooltips="1" connect="1" arrows="1" fold="1" page="1" pageScale="1" pageWidth="827" pageHeight="1169" math="0" shadow="0">
      <root>
        <mxCell id="0" />
        <mxCell id="1" parent="0" />
        <mxCell id="MHDuM7jYuX8IuSE8jwNh-1" value="MainFrame" style="rounded=0;whiteSpace=wrap;html=1;" vertex="1" parent="1">
          <mxGeometry x="250" y="120" width="100" height="40" as="geometry" />
        </mxCell>
        <mxCell id="MHDuM7jYuX8IuSE8jwNh-2" value="&lt;font color=&quot;#ffffff&quot;&gt;&lt;b&gt;OBSERVER&lt;/b&gt;&lt;/font&gt;" style="rounded=0;whiteSpace=wrap;html=1;fillColor=#000000;" vertex="1" parent="1">
          <mxGeometry x="470" y="120" width="100" height="40" as="geometry" />
        </mxCell>
        <mxCell id="MHDuM7jYuX8IuSE8jwNh-3" value="" style="endArrow=blockThin;html=1;rounded=0;exitX=1;exitY=0.5;exitDx=0;exitDy=0;endFill=0;" edge="1" parent="1" source="MHDuM7jYuX8IuSE8jwNh-1">
          <mxGeometry width="50" height="50" relative="1" as="geometry">
            <mxPoint x="390" y="310" as="sourcePoint" />
            <mxPoint x="470" y="140" as="targetPoint" />
          </mxGeometry>
        </mxCell>
        <mxCell id="MHDuM7jYuX8IuSE8jwNh-4" value="Implements" style="text;html=1;align=center;verticalAlign=middle;resizable=0;points=[];autosize=1;strokeColor=none;fillColor=none;" vertex="1" parent="1">
          <mxGeometry x="362" y="120" width="90" height="30" as="geometry" />
        </mxCell>
        <mxCell id="MHDuM7jYuX8IuSE8jwNh-5" value="Controlador" style="rounded=0;whiteSpace=wrap;html=1;" vertex="1" parent="1">
          <mxGeometry x="290" y="150" width="80" height="30" as="geometry" />
        </mxCell>
        <mxCell id="MHDuM7jYuX8IuSE8jwNh-7" value="Bomberman" style="rounded=0;whiteSpace=wrap;html=1;" vertex="1" parent="1">
          <mxGeometry x="250" y="250" width="100" height="40" as="geometry" />
        </mxCell>
        <mxCell id="MHDuM7jYuX8IuSE8jwNh-8" value="" style="endArrow=classic;html=1;rounded=0;exitX=0.5;exitY=1;exitDx=0;exitDy=0;entryX=0.5;entryY=0;entryDx=0;entryDy=0;" edge="1" parent="1" source="MHDuM7jYuX8IuSE8jwNh-5" target="MHDuM7jYuX8IuSE8jwNh-7">
          <mxGeometry width="50" height="50" relative="1" as="geometry">
            <mxPoint x="390" y="310" as="sourcePoint" />
            <mxPoint x="440" y="260" as="targetPoint" />
          </mxGeometry>
        </mxCell>
        <mxCell id="MHDuM7jYuX8IuSE8jwNh-9" value="&lt;font color=&quot;#ffffff&quot;&gt;&lt;b&gt;OBSERVER&lt;/b&gt;&lt;/font&gt;" style="rounded=0;whiteSpace=wrap;html=1;fillColor=#000000;" vertex="1" parent="1">
          <mxGeometry x="470" y="250" width="100" height="40" as="geometry" />
        </mxCell>
        <mxCell id="MHDuM7jYuX8IuSE8jwNh-10" value="" style="endArrow=blockThin;html=1;rounded=0;exitX=1;exitY=0.5;exitDx=0;exitDy=0;endFill=0;" edge="1" parent="1">
          <mxGeometry width="50" height="50" relative="1" as="geometry">
            <mxPoint x="350" y="269.5" as="sourcePoint" />
            <mxPoint x="470" y="269.5" as="targetPoint" />
          </mxGeometry>
        </mxCell>
        <mxCell id="MHDuM7jYuX8IuSE8jwNh-11" value="Extends" style="text;html=1;align=center;verticalAlign=middle;resizable=0;points=[];autosize=1;strokeColor=none;fillColor=none;" vertex="1" parent="1">
          <mxGeometry x="372" y="247" width="70" height="30" as="geometry" />
        </mxCell>
        <mxCell id="MHDuM7jYuX8IuSE8jwNh-12" value="" style="endArrow=classic;html=1;rounded=0;exitX=0.25;exitY=1;exitDx=0;exitDy=0;entryX=0.25;entryY=0;entryDx=0;entryDy=0;" edge="1" parent="1" source="MHDuM7jYuX8IuSE8jwNh-2" target="MHDuM7jYuX8IuSE8jwNh-9">
          <mxGeometry width="50" height="50" relative="1" as="geometry">
            <mxPoint x="340" y="190" as="sourcePoint" />
            <mxPoint x="310" y="260" as="targetPoint" />
          </mxGeometry>
        </mxCell>
        <mxCell id="MHDuM7jYuX8IuSE8jwNh-13" value="" style="endArrow=classic;html=1;rounded=0;exitX=0.75;exitY=0;exitDx=0;exitDy=0;entryX=0.75;entryY=1;entryDx=0;entryDy=0;" edge="1" parent="1" source="MHDuM7jYuX8IuSE8jwNh-9" target="MHDuM7jYuX8IuSE8jwNh-2">
          <mxGeometry width="50" height="50" relative="1" as="geometry">
            <mxPoint x="505" y="170" as="sourcePoint" />
            <mxPoint x="505" y="260" as="targetPoint" />
          </mxGeometry>
        </mxCell>
        <mxCell id="MHDuM7jYuX8IuSE8jwNh-14" value="Bomba" style="rounded=0;whiteSpace=wrap;html=1;" vertex="1" parent="1">
          <mxGeometry x="140" y="400" width="100" height="40" as="geometry" />
        </mxCell>
        <mxCell id="MHDuM7jYuX8IuSE8jwNh-15" value="" style="endArrow=classic;html=1;rounded=0;exitX=0;exitY=0.25;exitDx=0;exitDy=0;entryX=0.25;entryY=0;entryDx=0;entryDy=0;" edge="1" parent="1" source="MHDuM7jYuX8IuSE8jwNh-7" target="MHDuM7jYuX8IuSE8jwNh-14">
          <mxGeometry width="50" height="50" relative="1" as="geometry">
            <mxPoint x="340" y="190" as="sourcePoint" />
            <mxPoint x="310" y="260" as="targetPoint" />
            <Array as="points">
              <mxPoint x="165" y="260" />
            </Array>
          </mxGeometry>
        </mxCell>
        <mxCell id="MHDuM7jYuX8IuSE8jwNh-16" value="" style="endArrow=classic;html=1;rounded=0;exitX=0.5;exitY=0;exitDx=0;exitDy=0;entryX=0;entryY=0.75;entryDx=0;entryDy=0;" edge="1" parent="1" source="MHDuM7jYuX8IuSE8jwNh-14" target="MHDuM7jYuX8IuSE8jwNh-7">
          <mxGeometry width="50" height="50" relative="1" as="geometry">
            <mxPoint x="310" y="300" as="sourcePoint" />
            <mxPoint x="230" y="410" as="targetPoint" />
            <Array as="points">
              <mxPoint x="190" y="280" />
            </Array>
          </mxGeometry>
        </mxCell>
        <mxCell id="MHDuM7jYuX8IuSE8jwNh-17" value="MatrizBloques" style="rounded=0;whiteSpace=wrap;html=1;" vertex="1" parent="1">
          <mxGeometry x="314" y="400" width="100" height="40" as="geometry" />
        </mxCell>
        <mxCell id="MHDuM7jYuX8IuSE8jwNh-18" value="" style="endArrow=classic;html=1;rounded=0;exitX=1;exitY=0.5;exitDx=0;exitDy=0;entryX=0;entryY=0.5;entryDx=0;entryDy=0;" edge="1" parent="1" source="MHDuM7jYuX8IuSE8jwNh-14" target="MHDuM7jYuX8IuSE8jwNh-17">
          <mxGeometry width="50" height="50" relative="1" as="geometry">
            <mxPoint x="250" y="410" as="sourcePoint" />
            <mxPoint x="335" y="300" as="targetPoint" />
          </mxGeometry>
        </mxCell>
        <mxCell id="MHDuM7jYuX8IuSE8jwNh-19" value="Bloque" style="rounded=0;whiteSpace=wrap;html=1;dashed=1;" vertex="1" parent="1">
          <mxGeometry x="314" y="491" width="100" height="40" as="geometry" />
        </mxCell>
        <mxCell id="MHDuM7jYuX8IuSE8jwNh-20" value="" style="endArrow=classic;html=1;rounded=0;exitX=0.5;exitY=1;exitDx=0;exitDy=0;entryX=0.5;entryY=0;entryDx=0;entryDy=0;" edge="1" parent="1" source="MHDuM7jYuX8IuSE8jwNh-17" target="MHDuM7jYuX8IuSE8jwNh-19">
          <mxGeometry width="50" height="50" relative="1" as="geometry">
            <mxPoint x="390" y="710" as="sourcePoint" />
            <mxPoint x="440" y="660" as="targetPoint" />
          </mxGeometry>
        </mxCell>
        <mxCell id="MHDuM7jYuX8IuSE8jwNh-21" value="BloqueVacio" style="rounded=0;whiteSpace=wrap;html=1;" vertex="1" parent="1">
          <mxGeometry x="130" y="589" width="100" height="40" as="geometry" />
        </mxCell>
        <mxCell id="MHDuM7jYuX8IuSE8jwNh-22" value="BloqueBlando" style="rounded=0;whiteSpace=wrap;html=1;" vertex="1" parent="1">
          <mxGeometry x="250" y="589" width="100" height="40" as="geometry" />
        </mxCell>
        <mxCell id="MHDuM7jYuX8IuSE8jwNh-23" value="BloqueDuro" style="rounded=0;whiteSpace=wrap;html=1;" vertex="1" parent="1">
          <mxGeometry x="370" y="589" width="100" height="40" as="geometry" />
        </mxCell>
        <mxCell id="MHDuM7jYuX8IuSE8jwNh-24" value="BloqueArdiendo" style="rounded=0;whiteSpace=wrap;html=1;" vertex="1" parent="1">
          <mxGeometry x="490" y="589" width="100" height="40" as="geometry" />
        </mxCell>
        <mxCell id="MHDuM7jYuX8IuSE8jwNh-26" value="" style="endArrow=blockThin;html=1;rounded=0;exitX=0.5;exitY=0;exitDx=0;exitDy=0;endFill=0;entryX=0;entryY=0.5;entryDx=0;entryDy=0;" edge="1" parent="1" source="MHDuM7jYuX8IuSE8jwNh-21" target="MHDuM7jYuX8IuSE8jwNh-19">
          <mxGeometry width="50" height="50" relative="1" as="geometry">
            <mxPoint x="190" y="610" as="sourcePoint" />
            <mxPoint x="310" y="610" as="targetPoint" />
            <Array as="points">
              <mxPoint x="180" y="510" />
            </Array>
          </mxGeometry>
        </mxCell>
        <mxCell id="MHDuM7jYuX8IuSE8jwNh-27" value="" style="endArrow=blockThin;html=1;rounded=0;exitX=0.5;exitY=0;exitDx=0;exitDy=0;endFill=0;entryX=0.38;entryY=1;entryDx=0;entryDy=0;entryPerimeter=0;" edge="1" parent="1" source="MHDuM7jYuX8IuSE8jwNh-22" target="MHDuM7jYuX8IuSE8jwNh-19">
          <mxGeometry width="50" height="50" relative="1" as="geometry">
            <mxPoint x="280" y="610" as="sourcePoint" />
            <mxPoint x="352" y="550" as="targetPoint" />
          </mxGeometry>
        </mxCell>
        <mxCell id="MHDuM7jYuX8IuSE8jwNh-28" value="" style="endArrow=blockThin;html=1;rounded=0;exitX=0.5;exitY=0;exitDx=0;exitDy=0;endFill=0;entryX=0.75;entryY=1;entryDx=0;entryDy=0;" edge="1" parent="1" source="MHDuM7jYuX8IuSE8jwNh-23" target="MHDuM7jYuX8IuSE8jwNh-19">
          <mxGeometry width="50" height="50" relative="1" as="geometry">
            <mxPoint x="310" y="650" as="sourcePoint" />
            <mxPoint x="362" y="563" as="targetPoint" />
            <Array as="points" />
          </mxGeometry>
        </mxCell>
        <mxCell id="MHDuM7jYuX8IuSE8jwNh-29" value="" style="endArrow=blockThin;html=1;rounded=0;exitX=0.5;exitY=0;exitDx=0;exitDy=0;endFill=0;entryX=1;entryY=0.5;entryDx=0;entryDy=0;" edge="1" parent="1" source="MHDuM7jYuX8IuSE8jwNh-24" target="MHDuM7jYuX8IuSE8jwNh-19">
          <mxGeometry width="50" height="50" relative="1" as="geometry">
            <mxPoint x="320" y="660" as="sourcePoint" />
            <mxPoint x="450" y="490" as="targetPoint" />
            <Array as="points">
              <mxPoint x="540" y="511" />
            </Array>
          </mxGeometry>
        </mxCell>
        <mxCell id="MHDuM7jYuX8IuSE8jwNh-30" value="" style="endArrow=classic;html=1;rounded=0;exitX=1;exitY=0.5;exitDx=0;exitDy=0;entryX=1;entryY=0.5;entryDx=0;entryDy=0;" edge="1" parent="1" source="MHDuM7jYuX8IuSE8jwNh-24" target="MHDuM7jYuX8IuSE8jwNh-17">
          <mxGeometry width="50" height="50" relative="1" as="geometry">
            <mxPoint x="670" y="630" as="sourcePoint" />
            <mxPoint x="730" y="520" as="targetPoint" />
            <Array as="points">
              <mxPoint x="630" y="609" />
              <mxPoint x="630" y="420" />
            </Array>
          </mxGeometry>
        </mxCell>
        <mxCell id="MHDuM7jYuX8IuSE8jwNh-33" value="" style="endArrow=blockThin;html=1;rounded=0;exitX=0.75;exitY=0;exitDx=0;exitDy=0;endFill=0;entryX=0.5;entryY=1;entryDx=0;entryDy=0;" edge="1" parent="1" source="MHDuM7jYuX8IuSE8jwNh-17" target="MHDuM7jYuX8IuSE8jwNh-9">
          <mxGeometry width="50" height="50" relative="1" as="geometry">
            <mxPoint x="360" y="279.5" as="sourcePoint" />
            <mxPoint x="480" y="279.5" as="targetPoint" />
            <Array as="points">
              <mxPoint x="389" y="370" />
              <mxPoint x="520" y="370" />
            </Array>
          </mxGeometry>
        </mxCell>
        <mxCell id="MHDuM7jYuX8IuSE8jwNh-35" value="Extends" style="text;html=1;align=center;verticalAlign=middle;resizable=0;points=[];autosize=1;strokeColor=none;fillColor=none;" vertex="1" parent="1">
          <mxGeometry x="460" y="346" width="70" height="30" as="geometry" />
        </mxCell>
        <mxCell id="MHDuM7jYuX8IuSE8jwNh-37" value="" style="endArrow=classic;html=1;rounded=0;exitX=0.89;exitY=1;exitDx=0;exitDy=0;entryX=0.25;entryY=0;entryDx=0;entryDy=0;exitPerimeter=0;" edge="1" parent="1" source="MHDuM7jYuX8IuSE8jwNh-7" target="MHDuM7jYuX8IuSE8jwNh-17">
          <mxGeometry width="50" height="50" relative="1" as="geometry">
            <mxPoint x="250" y="410" as="sourcePoint" />
            <mxPoint x="310" y="300" as="targetPoint" />
          </mxGeometry>
        </mxCell>
      </root>
    </mxGraphModel>
  </diagram>
</mxfile>
